<?xml version="1.0" encoding="UTF-8" standalone="no"?>
<!-- Created with Inkscape (http://www.inkscape.org/) -->

<svg
   width="190.02206mm"
   height="190.40298mm"
   viewBox="0 0 190.02206 190.40298"
   version="1.1"
   id="svg1"
   inkscape:export-filename="apple-touch-icon.png"
   inkscape:export-xdpi="24.060368"
   inkscape:export-ydpi="24.060368"
   xml:space="preserve"
   xmlns:inkscape="http://www.inkscape.org/namespaces/inkscape"
   xmlns:sodipodi="http://sodipodi.sourceforge.net/DTD/sodipodi-0.dtd"
   xmlns:xlink="http://www.w3.org/1999/xlink"
   xmlns="http://www.w3.org/2000/svg"
   xmlns:svg="http://www.w3.org/2000/svg"><sodipodi:namedview
     id="namedview1"
     pagecolor="#505050"
     bordercolor="#eeeeee"
     borderopacity="1"
     inkscape:showpageshadow="0"
     inkscape:pageopacity="0"
     inkscape:pagecheckerboard="0"
     inkscape:deskcolor="#505050"
     inkscape:document-units="mm"><inkscape:page
       x="0"
       y="0"
       width="190.02206"
       height="190.40298"
       id="page2"
       margin="0"
       bleed="0" /></sodipodi:namedview><defs
     id="defs1"><linearGradient
       id="linearGradient5"
       inkscape:collect="always"><stop
         style="stop-color:#333333;stop-opacity:1;"
         offset="0"
         id="stop5" /><stop
         style="stop-color:#0f0f0f;stop-opacity:1;"
         offset="1"
         id="stop6" /></linearGradient><clipPath
       clipPathUnits="userSpaceOnUse"
       id="clipPath11"><path
         d="M 0,315.673 H 1080 V 0 H 0 Z"
         transform="translate(-87.7453,-198.82891)"
         id="path11" /></clipPath><clipPath
       clipPathUnits="userSpaceOnUse"
       id="clipPath9"><path
         d="M 0,315.673 H 1080 V 0 H 0 Z"
         transform="translate(-117.57921,-228.2165)"
         id="path9" /></clipPath><linearGradient
       inkscape:collect="always"
       xlink:href="#linearGradient5"
       id="linearGradient6"
       x1="101.81972"
       y1="31.93362"
       x2="101.81972"
       y2="220.76309"
       gradientUnits="userSpaceOnUse" /><filter
       style="color-interpolation-filters:sRGB"
       id="filter6"
       inkscape:label="inner-glow"
       x="-0.058090284"
       y="-0.057483258"
       width="1.1162039"
       height="1.1149665"><feGaussianBlur
         stdDeviation="0.69999999999999996"
         id="feGaussianBlur6" /><feComposite
         id="feComposite6"
         operator="in" /><feComponentTransfer
         id="feComponentTransfer6"><feFuncR
           id="feFuncR6"
           type="identity" /><feFuncG
           id="feFuncG6"
           type="identity" /><feFuncB
           id="feFuncB6"
           type="identity" /><feFuncA
           id="feFuncA6"
           type="gamma"
           amplitude="1"
           offset="2.7755575615628914e-17"
           exponent="1.3877787807814457e-16" /></feComponentTransfer><feComposite
         id="feComposite7"
         in2="SourceAlpha"
         operator="in"
         result="result1" /><feMerge
         id="feMerge7"><feMergeNode
           inkscape:collect="always"
           id="feMergeNode7"
           in="SourceAlpha" /><feMergeNode
           inkscape:collect="always"
           id="feMergeNode8"
           in="result1" /></feMerge></filter><linearGradient
       inkscape:collect="always"
       xlink:href="#linearGradient5"
       id="linearGradient8"
       gradientUnits="userSpaceOnUse"
       x1="101.81972"
       y1="31.93362"
       x2="101.81972"
       y2="220.76309"
       gradientTransform="translate(3.1803012,22.151647)" /></defs><g
     inkscape:label="Layer 1"
     inkscape:groupmode="layer"
     id="layer1"
     transform="translate(-9.9889771,-53.298517)"
     style="display:inline"><rect
       style="display:inline;fill:url(#linearGradient8);fill-opacity:1;fill-rule:nonzero;stroke:none;stroke-width:0.262414;stroke-opacity:1"
       id="rect1-8"
       width="188.82947"
       height="189.45474"
       x="10.585268"
       y="53.772629"
       ry="9"
       rx="9" /><rect
       style="display:none;fill:url(#linearGradient6);fill-opacity:1;fill-rule:nonzero;stroke:none;stroke-width:0.262414;stroke-opacity:1"
       id="rect1"
       width="188.82947"
       height="189.45474"
       x="7.4049778"
       y="31.620991"
       transform="translate(3.2092628,22.302791)" /><g
       id="g1"
       transform="matrix(0.64552346,0,0,0.64552346,38.918201,66.672844)"
       style="display:inline"><path
         id="path8"
         d="m 0,0 v -15.137 c 0,-2.095 -2.529,-3.147 -4.015,-1.671 l -10.811,10.741 c -0.926,0.92 -2.425,0.911 -3.34,-0.021 l -2.508,-2.554 c -0.899,-0.917 -0.899,-2.384 0.001,-3.3 l 10.276,-10.462 c 0,0 1.461,-1.782 4.435,-1.782 H 5.694 c 0,0 5.185,-0.081 5.426,-6.512 v -11.088 c 0,-0.172 0.018,-0.342 0.056,-0.51 0.12,-0.533 0.425,-1.734 0.855,-2.309 0.433,-0.576 7.742,-7.824 11.108,-11.154 0.924,-0.914 2.414,-0.907 3.329,0.017 l 2.495,2.518 c 0.908,0.916 0.91,2.391 0.004,3.31 L 18.232,-39.02 c -1.467,1.489 -0.413,4.008 1.677,4.008 h 15.089 c 1.301,0 2.355,1.055 2.355,2.355 v 3.562 c 0,1.304 -1.059,2.36 -2.363,2.355 L 19.956,-26.792 C 17.86,-26.8 16.8,-24.27 18.275,-22.78 l 10.711,10.816 c 0.93,0.939 0.906,2.459 -0.054,3.367 l -2.604,2.465 c -0.931,0.882 -2.396,0.856 -3.296,-0.057 L 12.388,-16.991 c -1.47,-1.492 -4.011,-0.466 -4.033,1.628 L 8.197,0.024 C 8.183,1.315 7.133,2.355 5.842,2.355 H 2.355 C 1.054,2.355 0,1.301 0,0"
         style="fill:#ffb300;fill-opacity:1;fill-rule:nonzero;stroke:#000000;stroke-opacity:0.198224;filter:url(#filter6)"
         transform="matrix(-2.82826,0,0,-2.82826,112.42371,37.656279)"
         clip-path="url(#clipPath9)" /><path
         id="path10"
         d="m 0,0 v -3.866 c 0,-1.295 1.05,-2.345 2.345,-2.345 h 19.873 c 0.384,0 0.577,-0.464 0.305,-0.735 L 8.503,-20.967 c -0.91,-0.91 -0.917,-2.383 -0.016,-3.301 l 2.411,-2.456 c 0.907,-0.925 2.392,-0.939 3.316,-0.032 l 14.454,14.177 c 0.256,0.252 0.689,0.066 0.682,-0.294 l -0.367,-20.318 c -0.024,-1.312 1.033,-2.388 2.344,-2.388 h 3.842 c 1.295,0 2.345,1.05 2.345,2.345 v 31.525 c 0,0 0.402,3.671 -3.135,3.751 C 31.44,2.109 9.645,2.287 2.362,2.345 1.06,2.356 0,1.303 0,0"
         style="fill:#2f66ff;fill-opacity:1;fill-rule:nonzero;stroke:#000000;stroke-opacity:0.198224;filter:url(#filter6)"
         transform="matrix(-2.82826,0,0,-2.82826,196.80176,120.77203)"
         clip-path="url(#clipPath11)" /></g></g></svg>
